<svg width="12" height="10" viewBox="0 0 12 10" fill="none" xmlns="http://www.w3.org/2000/svg">
<rect x="1.88599" y="0.463623" width="7.61242" height="7.06868" fill="white"/>
<path fill-rule="evenodd" clip-rule="evenodd" d="M4.95219 0.0212402C2.65808 0.0212402 0.79834 1.88098 0.79834 4.17508V5.84596C0.79834 8.14006 2.65808 9.9998 4.95218 9.9998H7.65531C9.94942 9.9998 11.8092 8.14006 11.8092 5.84596V4.17509C11.8092 1.88098 9.94942 0.0212402 7.65532 0.0212402H4.95219ZM3.94812 2.67513V7.4521H4.9248V2.67513H3.94812ZM9.05907 3.63052C9.03789 3.5509 8.9929 3.46333 8.92408 3.36779C8.86585 3.28817 8.7838 3.19528 8.67793 3.08913C8.57735 2.98297 8.48471 2.9007 8.40001 2.84232C8.30472 2.77332 8.21738 2.7282 8.13797 2.70697C8.05857 2.68574 7.96063 2.67513 7.84417 2.67513H5.46203V7.4521H7.84417C7.96063 7.4521 8.05857 7.44148 8.13797 7.42025C8.21738 7.39902 8.30472 7.3539 8.40001 7.2849C8.47941 7.23182 8.57205 7.15221 8.67793 7.04605C8.7838 6.9399 8.86585 6.84436 8.92408 6.75944C8.9929 6.6639 9.03789 6.57632 9.05907 6.4967C9.08024 6.41709 9.09083 6.31889 9.09083 6.20212V3.9251C9.09083 3.80833 9.08024 3.71014 9.05907 3.63052ZM7.9871 3.74198C8.07709 3.83221 8.12209 3.88529 8.12209 3.90121V6.22601C8.12209 6.24193 8.07709 6.29501 7.9871 6.38524C7.89711 6.47547 7.84417 6.52059 7.82829 6.52059H6.43077V3.60663H7.82829C7.84417 3.60663 7.89711 3.65175 7.9871 3.74198Z" fill="black"/>
</svg>
